<?xml version="1.0" encoding="UTF-8" standalone="no"?>
<!-- Created with Inkscape (http://www.inkscape.org/) -->

<svg
   xmlns:dc="http://purl.org/dc/elements/1.1/"
   xmlns:cc="http://creativecommons.org/ns#"
   xmlns:rdf="http://www.w3.org/1999/02/22-rdf-syntax-ns#"
   xmlns:svg="http://www.w3.org/2000/svg"
   xmlns="http://www.w3.org/2000/svg"
   xmlns:sodipodi="http://sodipodi.sourceforge.net/DTD/sodipodi-0.dtd"
   xmlns:inkscape="http://www.inkscape.org/namespaces/inkscape"
   width="210mm"
   height="297mm"
   viewBox="0 0 210 297"
   version="1.1"
   id="svg8"
   inkscape:version="0.92.1 r15371"
   sodipodi:docname="GKAlogoSmall.svg">
  <defs
     id="defs2" />
  <sodipodi:namedview
     id="base"
     pagecolor="#ffffff"
     bordercolor="#666666"
     borderopacity="1.0"
     inkscape:pageopacity="0.0"
     inkscape:pageshadow="2"
     inkscape:zoom="2"
     inkscape:cx="240.20481"
     inkscape:cy="690.16215"
     inkscape:document-units="mm"
     inkscape:current-layer="g4760"
     showgrid="false"
     inkscape:window-width="1920"
     inkscape:window-height="1016"
     inkscape:window-x="0"
     inkscape:window-y="27"
     inkscape:window-maximized="1"
     showguides="true"
     inkscape:guide-bbox="true" />
  <metadata
     id="metadata5">
    <rdf:RDF>
      <cc:Work
         rdf:about="">
        <dc:format>image/svg+xml</dc:format>
        <dc:type
           rdf:resource="http://purl.org/dc/dcmitype/StillImage" />
        <dc:title></dc:title>
      </cc:Work>
    </rdf:RDF>
  </metadata>
  <g
     inkscape:label="Layer 1"
     inkscape:groupmode="layer"
     id="layer1">
    <flowRoot
       xml:space="preserve"
       id="flowRoot4706"
       style="fill:black;stroke:none;stroke-opacity:1;stroke-width:1px;stroke-linejoin:miter;stroke-linecap:butt;fill-opacity:1;font-family:sans-serif;font-style:normal;font-weight:normal;font-size:40px;line-height:125%;letter-spacing:0px;word-spacing:0px"><flowRegion
         id="flowRegion4708"><rect
           id="rect4710"
           width="1680"
           height="871.42859"
           x="-582.85712"
           y="128.23398" /></flowRegion><flowPara
         id="flowPara4712"></flowPara></flowRoot>    <g
       id="g4760">
      <g
         id="flowRoot4714"
         style="font-style:normal;font-weight:normal;font-size:40px;line-height:125%;font-family:sans-serif;letter-spacing:0px;word-spacing:0px;fill:#000080;fill-opacity:1;stroke:none;stroke-width:1px;stroke-linecap:butt;stroke-linejoin:miter;stroke-opacity:1"
         transform="matrix(1.5681591,0,0,1.5681591,1185.2195,108.41761)"
         aria-label="€">
        <path
           sodipodi:nodetypes="cccccsccccsccccsccccssccccccsscccccccsccccccccscscccccssccc"
           inkscape:connector-curvature="0"
           id="path4722"
           style="font-style:normal;font-variant:normal;font-weight:normal;font-stretch:normal;font-size:39.99988937px;font-family:Aclonica;-inkscape-font-specification:'Aclonica, Normal';font-variant-ligatures:normal;font-variant-caps:normal;font-variant-numeric:normal;font-feature-settings:normal;text-align:start;writing-mode:lr-tb;text-anchor:start;opacity:0.97000002;fill:#000080"
           d="m -732.40435,7.759677 h -5.74217 c 0.22135,0.7161439 0.51432,1.3867149 0.8789,2.0117132 0.37761,0.6249988 0.82683,1.1718718 1.34766,1.6406208 0.53385,0.455727 1.14582,0.82031 1.83593,1.093747 0.6901,0.260416 1.47135,0.390624 2.34374,0.390624 0.67708,0 1.30859,-0.110677 1.89453,-0.332031 0.59895,-0.221353 1.13932,-0.527342 1.62109,-0.917966 0.49479,-0.390624 0.91796,-0.846352 1.26952,-1.367184 0.36459,-0.5338525 0.65756,-1.1067675 0.87891,-1.718745 0,0 0.32222,-1.3212037 0.35749,-1.9963028 0.0292,-0.5579844 -0.12191,-1.6717973 -0.12191,-1.6717973 l -5.89961,-0.00377 0.50778,-2.28515 8.38594,-0.011767 c 0,0 0.11082,3.2378166 -0.0689,4.835929 -0.0833,0.7408392 -0.46555,2.1875367 -0.46555,2.1875367 -0.39062,1.0026024 -0.93098,1.8749954 -1.62109,2.6171814 -0.6901,0.742185 -1.47786,1.360673 -2.36327,1.855463 -0.87239,0.481768 -1.8164,0.846352 -2.83202,1.093747 -1.00261,0.247394 -2.01172,0.371093 -3.02734,0.371093 -1.3151,0 -2.55859,-0.188802 -3.73046,-0.566405 -1.17187,-0.377604 -2.24609,-0.904945 -3.22265,-1.582026 -0.96353,-0.690103 -1.80988,-1.510414 -2.53905,-2.460931 -0.71615,-0.9635401 -1.26953,-2.0247351 -1.66015,-3.183586 h -5.76171 l 0.64453,-2.8710858 h 4.51171 c -0.0261,-0.1822912 -0.0391,-0.358072 -0.0391,-0.5273423 v -0.546873 c 0,-0.4166655 0.0195,-0.8203103 0.0586,-1.2109342 h -4.00389 l 0.64453,-2.87108577 h 3.98436 c 0.40365,-1.13280933 0.96354,-2.16796273 1.67968,-3.10546013 0.72917,-0.9505182 1.57552,-1.7578076 2.53906,-2.4218683 0.96354,-0.6770815 2.02473,-1.1979134 3.18358,-1.5624957 1.17187,-0.3776031 2.40885,-0.5664047 3.71093,-0.5664047 1.05469,0 2.08984,0.1236976 3.10546,0.3710927 1.02864,0.2473952 1.97916,0.6249983 2.85156,1.1328094 0.88541,0.4947903 1.66666,1.1262989 2.34374,1.894526 0.6901,0.7682271 1.23046,1.6666621 1.62109,2.6953051 l -2.67578,1.13280932 c -0.20833,-0.67708152 -0.48828,-1.29556932 -0.83984,-1.85546362 -0.35156,-0.5729151 -0.76822,-1.061195 -1.24999,-1.4648397 -0.48177,-0.4036447 -1.03516,-0.7161439 -1.66016,-0.9374974 -0.61197,-0.2213535 -1.28254,-0.3320303 -2.01171,-0.3320303 -0.79427,0 -1.52343,0.1367184 -2.18749,0.4101551 -0.65104,0.2604159 -1.23698,0.6184879 -1.75781,1.0742158 -0.52083,0.4557279 -0.97656,0.9895805 -1.36718,1.601558 -0.37761,0.5989567 -0.69011,1.24348614 -0.9375,1.93358843 h 7.42185 l -0.66406,2.87108577 h -7.42185 c -0.0391,0.4166655 -0.0586,0.8203103 -0.0586,1.2109342 v 0.5468735 c 0,0.1692703 0.013,0.3450511 0.0391,0.5273423 h 6.93357 z" />
      </g>
    </g>
  </g>
</svg>
