<?xml version="1.0" encoding="UTF-8" standalone="no"?>
<!-- Created with Inkscape (http://www.inkscape.org/) -->

<svg
   xmlns:dc="http://purl.org/dc/elements/1.1/"
   xmlns:cc="http://creativecommons.org/ns#"
   xmlns:rdf="http://www.w3.org/1999/02/22-rdf-syntax-ns#"
   xmlns:svg="http://www.w3.org/2000/svg"
   xmlns="http://www.w3.org/2000/svg"
   xmlns:sodipodi="http://sodipodi.sourceforge.net/DTD/sodipodi-0.dtd"
   xmlns:inkscape="http://www.inkscape.org/namespaces/inkscape"
   width="179.62381mm"
   height="35.893532mm"
   viewBox="0 0 197.58617 39.482885"
   version="1.1"
   id="svg8"
   inkscape:version="0.92.2 (5c3e80d, 2017-08-06)"
   sodipodi:docname="GKAlogo.svg">
  <defs
     id="defs2" />
  <sodipodi:namedview
     id="base"
     pagecolor="#ffffff"
     bordercolor="#666666"
     borderopacity="1.0"
     inkscape:pageopacity="0"
     inkscape:pageshadow="2"
     inkscape:zoom="2"
     inkscape:cx="224.88956"
     inkscape:cy="8.5407176"
     inkscape:document-units="mm"
     inkscape:current-layer="layer1"
     showgrid="false"
     inkscape:window-width="1920"
     inkscape:window-height="1001"
     inkscape:window-x="-9"
     inkscape:window-y="-9"
     inkscape:window-maximized="1"
     showguides="true"
     inkscape:guide-bbox="true"
     showborder="true"
     scale-x="1.1"
     fit-margin-top="1"
     fit-margin-left="1"
     fit-margin-right="1"
     fit-margin-bottom="1" />
  <metadata
     id="metadata5">
    <rdf:RDF>
      <cc:Work
         rdf:about="">
        <dc:format>image/svg+xml</dc:format>
        <dc:type
           rdf:resource="http://purl.org/dc/dcmitype/StillImage" />
        <dc:title></dc:title>
      </cc:Work>
    </rdf:RDF>
  </metadata>
  <g
     inkscape:label="Layer 1"
     inkscape:groupmode="layer"
     id="layer1"
     transform="translate(-7.5486145,-94.657707)">
    <flowRoot
       xml:space="preserve"
       id="flowRoot4706"
       style="font-style:normal;font-weight:normal;font-size:40px;line-height:125%;font-family:sans-serif;letter-spacing:0px;word-spacing:0px;fill:#000000;fill-opacity:1;stroke:none;stroke-width:1px;stroke-linecap:butt;stroke-linejoin:miter;stroke-opacity:1"><flowRegion
         id="flowRegion4708"><rect
           id="rect4710"
           width="1680"
           height="871.42859"
           x="-582.85712"
           y="128.23398" /></flowRegion><flowPara
         id="flowPara4712" /></flowRoot>    <g
       id="g4760">
      <g
         id="flowRoot4714"
         style="font-style:normal;font-weight:normal;font-size:40px;line-height:125%;font-family:sans-serif;letter-spacing:0px;word-spacing:0px;fill:#5dc128;fill-opacity:1;stroke:#1f1f1f;stroke-width:0.29843912;stroke-linecap:round;stroke-linejoin:round;stroke-miterlimit:4;stroke-dasharray:none;stroke-opacity:1"
         transform="matrix(1.5681591,0,0,1.5681591,1185.2195,108.41761)"
         aria-label="€">
        <path
           sodipodi:nodetypes="cccccsccccsccccsccccssccccccsscccccccsccccccccscscccccssccc"
           inkscape:connector-curvature="0"
           id="path4722"
           style="font-style:normal;font-variant:normal;font-weight:normal;font-stretch:normal;font-size:39.99988937px;font-family:Aclonica;-inkscape-font-specification:'Aclonica, Normal';font-variant-ligatures:normal;font-variant-caps:normal;font-variant-numeric:normal;font-feature-settings:normal;text-align:start;writing-mode:lr-tb;text-anchor:start;opacity:1;fill:#ffd700;fill-opacity:1;stroke:#1f1f1f;stroke-width:0.29843912;stroke-linecap:round;stroke-linejoin:round;stroke-miterlimit:4;stroke-dasharray:none;stroke-opacity:1"
           d="m -732.40435,7.759677 h -5.74217 c 0.22135,0.7161439 0.51432,1.3867149 0.8789,2.0117132 0.37761,0.6249988 0.82683,1.1718718 1.34766,1.6406208 0.53385,0.455727 1.14582,0.82031 1.83593,1.093747 0.6901,0.260416 1.47135,0.390624 2.34374,0.390624 0.67708,0 1.30859,-0.110677 1.89453,-0.332031 0.59895,-0.221353 1.13932,-0.527342 1.62109,-0.917966 0.49479,-0.390624 0.91796,-0.846352 1.26952,-1.367184 0.36459,-0.5338525 0.65756,-1.1067675 0.87891,-1.718745 0,0 0.32222,-1.3212037 0.35749,-1.9963028 0.0292,-0.5579844 -0.12191,-1.6717973 -0.12191,-1.6717973 l -5.89961,-0.00377 0.50778,-2.28515 8.38594,-0.011767 c 0,0 0.11082,3.2378166 -0.0689,4.835929 -0.0833,0.7408392 -0.46555,2.1875367 -0.46555,2.1875367 -0.39062,1.0026024 -0.93098,1.8749954 -1.62109,2.6171814 -0.6901,0.742185 -1.47786,1.360673 -2.36327,1.855463 -0.87239,0.481768 -1.8164,0.846352 -2.83202,1.093747 -1.00261,0.247394 -2.01172,0.371093 -3.02734,0.371093 -1.3151,0 -2.55859,-0.188802 -3.73046,-0.566405 -1.17187,-0.377604 -2.24609,-0.904945 -3.22265,-1.582026 -0.96353,-0.690103 -1.80988,-1.510414 -2.53905,-2.460931 -0.71615,-0.9635401 -1.26953,-2.0247351 -1.66015,-3.183586 h -5.76171 l 0.64453,-2.8710858 h 4.51171 c -0.0261,-0.1822912 -0.0391,-0.358072 -0.0391,-0.5273423 v -0.546873 c 0,-0.4166655 0.0195,-0.8203103 0.0586,-1.2109342 h -4.00389 l 0.64453,-2.87108577 h 3.98436 c 0.40365,-1.13280933 0.96354,-2.16796273 1.67968,-3.10546013 0.72917,-0.9505182 1.57552,-1.7578076 2.53906,-2.4218683 0.96354,-0.6770815 2.02473,-1.1979134 3.18358,-1.5624957 1.17187,-0.3776031 2.40885,-0.5664047 3.71093,-0.5664047 1.05469,0 2.08984,0.1236976 3.10546,0.3710927 1.02864,0.2473952 1.97916,0.6249983 2.85156,1.1328094 0.88541,0.4947903 1.66666,1.1262989 2.34374,1.894526 0.6901,0.7682271 1.23046,1.6666621 1.62109,2.6953051 l -2.67578,1.13280932 c -0.20833,-0.67708152 -0.48828,-1.29556932 -0.83984,-1.85546362 -0.35156,-0.5729151 -0.76822,-1.061195 -1.24999,-1.4648397 -0.48177,-0.4036447 -1.03516,-0.7161439 -1.66016,-0.9374974 -0.61197,-0.2213535 -1.28254,-0.3320303 -2.01171,-0.3320303 -0.79427,0 -1.52343,0.1367184 -2.18749,0.4101551 -0.65104,0.2604159 -1.23698,0.6184879 -1.75781,1.0742158 -0.52083,0.4557279 -0.97656,0.9895805 -1.36718,1.601558 -0.37761,0.5989567 -0.69011,1.24348614 -0.9375,1.93358843 h 7.42185 l -0.66406,2.87108577 h -7.42185 c -0.0391,0.4166655 -0.0586,0.8203103 -0.0586,1.2109342 v 0.5468735 c 0,0.1692703 0.013,0.3450511 0.0391,0.5273423 h 6.93357 z" />
      </g>
      <g
         aria-label="oedkoopschApp"
         transform="matrix(0.59168537,0,0,0.59168537,-72.212217,-125.54513)"
         style="font-style:normal;font-weight:normal;font-size:40px;line-height:125%;font-family:sans-serif;letter-spacing:0px;word-spacing:0px;fill:#f9f9f9;fill-opacity:1;stroke:none;stroke-width:1px;stroke-linecap:butt;stroke-linejoin:miter;stroke-opacity:1"
         id="flowRoot4746">
        <path
           d="m 221.33214,415.31431 q -1.6719,0 -2.54691,1.34376 -0.87501,1.32814 -0.87501,3.84379 0,2.51565 0.87501,3.85942 0.87501,1.32814 2.54691,1.32814 1.65626,0 2.51565,-1.32814 0.87501,-1.34377 0.87501,-3.85942 0,-2.51565 -0.87501,-3.84379 -0.85939,-1.34376 -2.51565,-1.34376 z m 0,-4.00004 q 4.07816,0 6.35944,2.43752 2.28127,2.43753 2.28127,6.75007 0,4.31255 -2.28127,6.75007 -2.28128,2.43753 -6.35944,2.43753 -4.06255,0 -6.37507,-2.43753 -2.2969,-2.43752 -2.2969,-6.75007 0,-4.31254 2.2969,-6.75007 2.31252,-2.43752 6.37507,-2.43752 z"
           style="font-style:normal;font-variant:normal;font-weight:bold;font-stretch:semi-condensed;font-size:32.00033569px;font-family:Fixed;-inkscape-font-specification:'Fixed, Bold Semi-Condensed';font-variant-ligatures:normal;font-variant-caps:normal;font-variant-numeric:normal;font-feature-settings:normal;text-align:start;writing-mode:lr-tb;text-anchor:start;fill:#f9f9f9;fill-opacity:1"
           id="path4501"
           inkscape:connector-curvature="0" />
        <path
           d="m 249.3793,420.43936 v 1.59377 h -11.76574 q 0.17187,1.96877 1.26563,2.95315 1.10939,0.98439 3.07816,0.98439 1.59377,0 3.25004,-0.51563 1.67189,-0.53126 3.42191,-1.59377 v 4.31255 q -1.78127,0.75 -3.57817,1.12501 -1.78126,0.39063 -3.56253,0.39063 -4.2813,0 -6.65632,-2.40628 -2.3594,-2.4219 -2.3594,-6.78132 0,-4.28129 2.32815,-6.73444 2.32815,-2.45315 6.40631,-2.45315 3.71879,0 5.93757,2.4844 2.23439,2.4844 2.23439,6.64069 z m -5.17192,-1.85939 q 0,-1.59377 -0.84376,-2.56253 -0.82814,-0.98439 -2.18753,-0.98439 -1.45314,0 -2.37502,0.92189 -0.90626,0.90626 -1.14064,2.62503 z"
           style="font-style:normal;font-variant:normal;font-weight:bold;font-stretch:semi-condensed;font-size:32.00033569px;font-family:Fixed;-inkscape-font-specification:'Fixed, Bold Semi-Condensed';font-variant-ligatures:normal;font-variant-caps:normal;font-variant-numeric:normal;font-feature-settings:normal;text-align:start;writing-mode:lr-tb;text-anchor:start;fill:#f9f9f9;fill-opacity:1"
           id="path4503"
           inkscape:connector-curvature="0" />
        <path
           d="m 263.94196,414.29867 v -9.3751 h 5.06255 v 24.31276 h -5.06255 v -2.53128 q -1.04689,1.54689 -2.2969,2.26565 -1.25002,0.71876 -2.90628,0.71876 -2.90628,0 -4.7813,-2.56253 -1.8594,-2.57815 -1.8594,-6.62507 0,-4.04692 1.8594,-6.60944 1.87502,-2.57815 4.7813,-2.57815 1.64064,0 2.89065,0.73438 1.26564,0.71876 2.31253,2.25002 z m -3.32816,11.32825 q 1.62501,0 2.46877,-1.31252 0.85939,-1.31251 0.85939,-3.81254 0,-2.50002 -0.85939,-3.81254 -0.84376,-1.31251 -2.46877,-1.31251 -1.59377,0 -2.45315,1.31251 -0.84376,1.31252 -0.84376,3.81254 0,2.50003 0.84376,3.81254 0.85938,1.31252 2.45315,1.31252 z"
           style="font-style:normal;font-variant:normal;font-weight:bold;font-stretch:semi-condensed;font-size:32.00033569px;font-family:Fixed;-inkscape-font-specification:'Fixed, Bold Semi-Condensed';font-variant-ligatures:normal;font-variant-caps:normal;font-variant-numeric:normal;font-feature-settings:normal;text-align:start;writing-mode:lr-tb;text-anchor:start;fill:#f9f9f9;fill-opacity:1"
           id="path4505"
           inkscape:connector-curvature="0" />
        <path
           d="m 273.84831,404.92357 h 5.0313 v 13.23452 l 5.79694,-6.42195 h 5.84381 l -7.68758,8.03134 8.29696,9.46885 h -6.10944 l -6.14069,-7.29695 v 7.29695 h -5.0313 z"
           style="font-style:normal;font-variant:normal;font-weight:bold;font-stretch:semi-condensed;font-size:32.00033569px;font-family:Fixed;-inkscape-font-specification:'Fixed, Bold Semi-Condensed';font-variant-ligatures:normal;font-variant-caps:normal;font-variant-numeric:normal;font-feature-settings:normal;text-align:start;writing-mode:lr-tb;text-anchor:start;fill:#f9f9f9;fill-opacity:1"
           id="path4507"
           inkscape:connector-curvature="0" />
        <path
           d="m 299.58296,415.31431 q -1.67189,0 -2.5469,1.34376 -0.87501,1.32814 -0.87501,3.84379 0,2.51565 0.87501,3.85942 0.87501,1.32814 2.5469,1.32814 1.65627,0 2.51565,-1.32814 0.87501,-1.34377 0.87501,-3.85942 0,-2.51565 -0.87501,-3.84379 -0.85938,-1.34376 -2.51565,-1.34376 z m 0,-4.00004 q 4.07817,0 6.35944,2.43752 2.28127,2.43753 2.28127,6.75007 0,4.31255 -2.28127,6.75007 -2.28127,2.43753 -6.35944,2.43753 -4.06254,0 -6.37507,-2.43753 -2.2969,-2.43752 -2.2969,-6.75007 0,-4.31254 2.2969,-6.75007 2.31253,-2.43752 6.37507,-2.43752 z"
           style="font-style:normal;font-variant:normal;font-weight:bold;font-stretch:semi-condensed;font-size:32.00033569px;font-family:Fixed;-inkscape-font-specification:'Fixed, Bold Semi-Condensed';font-variant-ligatures:normal;font-variant-caps:normal;font-variant-numeric:normal;font-feature-settings:normal;text-align:start;writing-mode:lr-tb;text-anchor:start;fill:#f9f9f9;fill-opacity:1"
           id="path4509"
           inkscape:connector-curvature="0" />
        <path
           d="m 319.39567,415.31431 q -1.6719,0 -2.54691,1.34376 -0.87501,1.32814 -0.87501,3.84379 0,2.51565 0.87501,3.85942 0.87501,1.32814 2.54691,1.32814 1.65626,0 2.51565,-1.32814 0.87501,-1.34377 0.87501,-3.85942 0,-2.51565 -0.87501,-3.84379 -0.85939,-1.34376 -2.51565,-1.34376 z m 0,-4.00004 q 4.07816,0 6.35944,2.43752 2.28127,2.43753 2.28127,6.75007 0,4.31255 -2.28127,6.75007 -2.28128,2.43753 -6.35944,2.43753 -4.06255,0 -6.37507,-2.43753 -2.2969,-2.43752 -2.2969,-6.75007 0,-4.31254 2.2969,-6.75007 2.31252,-2.43752 6.37507,-2.43752 z"
           style="font-style:normal;font-variant:normal;font-weight:bold;font-stretch:semi-condensed;font-size:32.00033569px;font-family:Fixed;-inkscape-font-specification:'Fixed, Bold Semi-Condensed';font-variant-ligatures:normal;font-variant-caps:normal;font-variant-numeric:normal;font-feature-settings:normal;text-align:start;writing-mode:lr-tb;text-anchor:start;fill:#f9f9f9;fill-opacity:1"
           id="path4511"
           inkscape:connector-curvature="0" />
        <path
           d="m 336.75522,426.70505 v 9.1876 h -5.0313 v -24.15651 h 5.0313 v 2.56253 q 1.04689,-1.53126 2.31252,-2.25002 1.26564,-0.73438 2.90629,-0.73438 2.90628,0 4.7813,2.57815 1.87501,2.56252 1.87501,6.60944 0,4.04692 -1.87501,6.62507 -1.87502,2.56253 -4.7813,2.56253 -1.64065,0 -2.90629,-0.71876 -1.26563,-0.73438 -2.31252,-2.26565 z m 3.34379,-11.32824 q -1.6094,0 -2.48441,1.32814 -0.85938,1.31251 -0.85938,3.79691 0,2.4844 0.85938,3.81254 0.87501,1.31252 2.48441,1.31252 1.62501,0 2.46877,-1.31252 0.85939,-1.31251 0.85939,-3.81254 0,-2.50002 -0.85939,-3.81254 -0.84376,-1.31251 -2.46877,-1.31251 z"
           style="font-style:normal;font-variant:normal;font-weight:bold;font-stretch:semi-condensed;font-size:32.00033569px;font-family:Fixed;-inkscape-font-specification:'Fixed, Bold Semi-Condensed';font-variant-ligatures:normal;font-variant-caps:normal;font-variant-numeric:normal;font-feature-settings:normal;text-align:start;writing-mode:lr-tb;text-anchor:start;fill:#f9f9f9;fill-opacity:1"
           id="path4513"
           inkscape:connector-curvature="0" />
        <path
           d="m 364.64614,412.28303 v 4.25004 q -1.6094,-0.75001 -3.12504,-1.12501 -1.50001,-0.37501 -2.82815,-0.37501 -1.43752,0 -2.14065,0.40626 -0.68751,0.39063 -0.68751,1.21876 0,0.67188 0.51563,1.03126 0.53126,0.35938 1.90627,0.53126 l 0.87501,0.14062 q 3.87504,0.54688 5.20318,1.7969 1.34377,1.25001 1.34377,3.92191 0,2.79691 -1.8594,4.20317 -1.85939,1.40627 -5.54693,1.40627 -1.56252,0 -3.23441,-0.28126 -1.65627,-0.26562 -3.40629,-0.8125 v -4.25005 q 1.50002,0.81251 3.07816,1.21876 1.59377,0.40626 3.21879,0.40626 1.46876,0 2.21877,-0.45313 0.75001,-0.45313 0.75001,-1.34376 0,-0.75001 -0.51563,-1.10939 -0.51563,-0.37501 -2.0469,-0.57813 l -0.89063,-0.125 q -3.35942,-0.46876 -4.7188,-1.7344 -1.34377,-1.26564 -1.34377,-3.84379 0,-2.78128 1.71877,-4.12504 1.71877,-1.34376 5.26568,-1.34376 1.39064,0 2.92191,0.23437 1.53126,0.23438 3.32816,0.73439 z"
           style="font-style:normal;font-variant:normal;font-weight:bold;font-stretch:semi-condensed;font-size:32.00033569px;font-family:Fixed;-inkscape-font-specification:'Fixed, Bold Semi-Condensed';font-variant-ligatures:normal;font-variant-caps:normal;font-variant-numeric:normal;font-feature-settings:normal;text-align:start;writing-mode:lr-tb;text-anchor:start;fill:#f9f9f9;fill-opacity:1"
           id="path4515"
           inkscape:connector-curvature="0" />
        <path
           d="m 382.1932,412.28303 v 4.56254 q -1.01564,-0.78126 -2.06252,-1.15626 -1.03126,-0.375 -2.14065,-0.375 -2.1094,0 -3.28129,1.37501 -1.17188,1.35939 -1.17188,3.81254 0,2.45315 1.17188,3.82817 1.17189,1.35939 3.28129,1.35939 1.18751,0 2.25002,-0.39063 1.06251,-0.39063 1.95315,-1.15627 v 4.57818 q -1.17189,0.48438 -2.39065,0.71876 -1.21877,0.25 -2.43753,0.25 -4.26567,0 -6.67194,-2.4219 -2.40628,-2.43753 -2.40628,-6.7657 0,-4.32817 2.40628,-6.75007 2.40627,-2.43752 6.67194,-2.43752 1.23439,0 2.43753,0.25 1.20314,0.23438 2.39065,0.71876 z"
           style="font-style:normal;font-variant:normal;font-weight:bold;font-stretch:semi-condensed;font-size:32.00033569px;font-family:Fixed;-inkscape-font-specification:'Fixed, Bold Semi-Condensed';font-variant-ligatures:normal;font-variant-caps:normal;font-variant-numeric:normal;font-feature-settings:normal;text-align:start;writing-mode:lr-tb;text-anchor:start;fill:#f9f9f9;fill-opacity:1"
           id="path4517"
           inkscape:connector-curvature="0" />
        <path
           d="m 402.36529,418.57997 v 10.65636 h -5.06255 v -1.7344 -6.39069 q 0,-2.2969 -0.0938,-3.15628 -0.0937,-0.85938 -0.3125,-1.26564 -0.29688,-0.54688 -0.81251,-0.84376 -0.5,-0.3125 -1.14063,-0.3125 -1.57815,0 -2.48441,1.35939 -0.89063,1.34376 -0.89063,3.73441 v 8.60947 h -5.0313 v -24.31276 h 5.0313 v 9.3751 q 1.14064,-1.53126 2.4219,-2.25002 1.28126,-0.73438 2.82816,-0.73438 2.71877,0 4.12504,1.85939 1.42189,1.85939 1.42189,5.40631 z"
           style="font-style:normal;font-variant:normal;font-weight:bold;font-stretch:semi-condensed;font-size:32.00033569px;font-family:Fixed;-inkscape-font-specification:'Fixed, Bold Semi-Condensed';font-variant-ligatures:normal;font-variant-caps:normal;font-variant-numeric:normal;font-feature-settings:normal;text-align:start;writing-mode:lr-tb;text-anchor:start;fill:#f9f9f9;fill-opacity:1"
           id="path4519"
           inkscape:connector-curvature="0" />
        <path
           d="m 420.0061,424.98628 h -8.46884 l -1.34377,4.25005 h -5.43755 l 7.78133,-23.32837 h 6.45319 l 7.78133,23.32837 h -5.45318 z m -7.12508,-4.32817 h 5.75006 l -2.8594,-9.28134 z"
           style="font-style:normal;font-variant:normal;font-weight:bold;font-stretch:semi-condensed;font-size:32.00033569px;font-family:Fixed;-inkscape-font-specification:'Fixed, Bold Semi-Condensed';font-variant-ligatures:normal;font-variant-caps:normal;font-variant-numeric:normal;font-feature-settings:normal;text-align:start;writing-mode:lr-tb;text-anchor:start;fill:#f9f9f9;fill-opacity:1"
           id="path4521"
           inkscape:connector-curvature="0" />
        <path
           d="m 434.38124,426.70505 v 9.1876 h -5.0313 v -24.15651 h 5.0313 v 2.56253 q 1.04689,-1.53126 2.31253,-2.25002 1.26564,-0.73438 2.90628,-0.73438 2.90628,0 4.7813,2.57815 1.87502,2.56252 1.87502,6.60944 0,4.04692 -1.87502,6.62507 -1.87502,2.56253 -4.7813,2.56253 -1.64064,0 -2.90628,-0.71876 -1.26564,-0.73438 -2.31253,-2.26565 z m 3.34379,-11.32824 q -1.60939,0 -2.4844,1.32814 -0.85939,1.31251 -0.85939,3.79691 0,2.4844 0.85939,3.81254 0.87501,1.31252 2.4844,1.31252 1.62501,0 2.46877,-1.31252 0.85939,-1.31251 0.85939,-3.81254 0,-2.50002 -0.85939,-3.81254 -0.84376,-1.31251 -2.46877,-1.31251 z"
           style="font-style:normal;font-variant:normal;font-weight:bold;font-stretch:semi-condensed;font-size:32.00033569px;font-family:Fixed;-inkscape-font-specification:'Fixed, Bold Semi-Condensed';font-variant-ligatures:normal;font-variant-caps:normal;font-variant-numeric:normal;font-feature-settings:normal;text-align:start;writing-mode:lr-tb;text-anchor:start;fill:#f9f9f9;fill-opacity:1"
           id="path4523"
           inkscape:connector-curvature="0" />
        <path
           d="m 455.00646,426.70505 v 9.1876 h -5.03131 v -24.15651 h 5.03131 v 2.56253 q 1.04688,-1.53126 2.31252,-2.25002 1.26564,-0.73438 2.90628,-0.73438 2.90628,0 4.7813,2.57815 1.87502,2.56252 1.87502,6.60944 0,4.04692 -1.87502,6.62507 -1.87502,2.56253 -4.7813,2.56253 -1.64064,0 -2.90628,-0.71876 -1.26564,-0.73438 -2.31252,-2.26565 z m 3.34378,-11.32824 q -1.60939,0 -2.4844,1.32814 -0.85938,1.31251 -0.85938,3.79691 0,2.4844 0.85938,3.81254 0.87501,1.31252 2.4844,1.31252 1.62502,0 2.46878,-1.31252 0.85938,-1.31251 0.85938,-3.81254 0,-2.50002 -0.85938,-3.81254 -0.84376,-1.31251 -2.46878,-1.31251 z"
           style="font-style:normal;font-variant:normal;font-weight:bold;font-stretch:semi-condensed;font-size:32.00033569px;font-family:Fixed;-inkscape-font-specification:'Fixed, Bold Semi-Condensed';font-variant-ligatures:normal;font-variant-caps:normal;font-variant-numeric:normal;font-feature-settings:normal;text-align:start;writing-mode:lr-tb;text-anchor:start;fill:#f9f9f9;fill-opacity:1"
           id="path4525"
           inkscape:connector-curvature="0" />
      </g>
    </g>
  </g>
</svg>
